C:\GBW_MyPrograms\PredSim\Subjects\Ines_test\Kleuter\Kleuter_v1.mot
version=1
nRows=15
nColumns=31
inDegrees=yes
endheader
                time	         pelvis_tilt	           pelvis_tx	           pelvis_ty	       hip_flexion_r	        knee_angle_r	       ankle_angle_r	       hip_flexion_l	        knee_angle_l	       ankle_angle_l	    lumbar_extension	          arm_flex_r	          arm_flex_l	hamstrings_r/activation	bifemsh_r/activation	glut_max_r/activation	iliopsoas_r/activation	rect_fem_r/activation	  vasti_r/activation	gastroc_r/activation	 soleus_r/activation	tib_ant_r/activation	hamstrings_l/activation	bifemsh_l/activation	glut_max_l/activation	iliopsoas_l/activation	rect_fem_l/activation	  vasti_l/activation	gastroc_l/activation	 soleus_l/activation	tib_ant_l/activation	
          0.79483582	         -0.50570171	          0.41842133	          0.46242016	          0.92292016	        -23.10729553	        -17.63099714	         19.14597937	        -26.78500553	         -6.56076920	         -4.51012738	         -3.08689403	         -3.08690273	          0.32250214	          0.57054977	          0.38935102	          0.64828281	          0.48096658	          0.28886446	          0.50082779	          0.37872946	          0.59917412	          0.24324492	          0.54809187	          0.18060723	          0.46803885	          0.45446216	          0.31886492	          0.26822433	          0.11646763	          0.68927756	
          0.80013473	         -0.54117983	          0.42135273	          0.46188226	          0.80989484	        -23.50008724	        -17.68710565	         19.45698455	        -26.55440524	         -6.51964766	         -4.44215754	         -3.16262671	         -3.16263367	          0.31604597	          0.56473446	          0.37312896	          0.65379977	          0.47582293	          0.27502439	          0.50112225	          0.37551518	          0.60966496	          0.28828165	          0.54606438	          0.19607636	          0.47804462	          0.45387866	          0.32536464	          0.27670692	          0.12506112	          0.68365476	
          0.80543364	         -0.58154374	          0.42438070	          0.46134966	          0.75209054	        -24.00017241	        -17.72702803	         19.61765693	        -26.43395264	         -6.53623184	         -4.34541792	         -3.26865605	         -3.26866182	          0.30874107	          0.55749017	          0.36453050	          0.64194192	          0.43956546	          0.25595638	          0.50166239	          0.37398882	          0.62148887	          0.32432908	          0.54648991	          0.22077832	          0.49386123	          0.45082602	          0.31079307	          0.29014367	          0.13543672	          0.68330435	
          0.81073254	         -0.62551521	          0.42750410	          0.46080888	          0.74963327	        -24.61715354	        -17.73852411	         19.62811038	        -26.46425062	         -6.62391247	         -4.22153277	         -3.40366936	         -3.40367336	          0.31070927	          0.56152789	          0.38243883	          0.61512677	          0.40566878	          0.23606015	          0.50457869	          0.37520759	          0.62772179	          0.34264462	          0.58066490	          0.24304155	          0.51725648	          0.45317438	          0.29269341	          0.30257767	          0.16573986	          0.69284102	
          0.81603145	         -0.67120707	          0.43071574	          0.46024265	          0.78357995	        -25.32742751	        -17.72075025	         19.51896212	        -26.69544890	         -6.76249846	         -4.07435510	         -3.56434523	         -3.56434800	          0.31735925	          0.59065019	          0.38735422	          0.57783543	          0.37521958	          0.21786392	          0.50741034	          0.37849300	          0.63012863	          0.34856824	          0.57404876	          0.27865231	          0.51414379	          0.44925218	          0.28178057	          0.31237733	          0.17663383	          0.67013425	
          0.82133035	         -0.71765348	          0.43401221	          0.45964489	          0.83978558	        -26.11098010	        -17.68835606	         19.26161845	        -26.88248606	         -6.89977797	         -3.90572493	         -3.74881457	         -3.74881569	          0.30009843	          0.58320781	          0.42052182	          0.55786604	          0.34683463	          0.20110361	          0.50509564	          0.37901181	          0.63454842	          0.34828739	          0.59097665	          0.31959877	          0.53745956	          0.44629205	          0.26053000	          0.31286111	          0.17517996	          0.68291363	
          0.82662926	         -0.76353272	          0.43736534	          0.45900118	          0.89401978	        -26.91874710	        -17.64468018	         18.94093807	        -27.04606726	         -6.98324871	         -3.72423618	         -3.94737332	         -3.94737310	          0.28490121	          0.57020028	          0.43871855	          0.53990207	          0.34729932	          0.18755290	          0.50166291	          0.37709190	          0.63914553	          0.34300009	          0.58779912	          0.35472792	          0.54885389	          0.43877489	          0.26120802	          0.31812100	          0.18285495	          0.68139599	
          0.83192816	         -0.80810043	          0.44075438	          0.45831473	          0.91889746	        -27.69440593	        -17.59648162	         18.62033738	        -27.20622300	         -7.08376878	         -3.53593932	         -4.15300791	         -4.15300623	          0.27178726	          0.56853655	          0.44645820	          0.53291085	          0.35139600	          0.17816994	          0.49924029	          0.37424619	          0.64192573	          0.33814055	          0.58528738	          0.38933524	          0.55040628	          0.42981800	          0.26583687	          0.33074622	          0.19465990	          0.67295865	
          0.83722707	         -0.85030066	          0.44416906	          0.45760947	          0.91258449	        -28.42668506	        -17.55887416	         18.29734654	        -27.34096726	         -7.18567368	         -3.34458749	         -4.36204843	         -4.36204531	          0.26164932	          0.57044687	          0.44587144	          0.52640123	          0.35556485	          0.17731886	          0.49617077	          0.36798565	          0.64461100	          0.33541396	          0.58314286	          0.41440119	          0.54352461	          0.41895818	          0.27033919	          0.34754704	          0.20533668	          0.66345292	
          0.84252597	         -0.88850660	          0.44760113	          0.45691939	          0.86856363	        -29.09446810	        -17.53052933	         17.96475643	        -27.46228885	         -7.27842295	         -3.15404098	         -4.57141082	         -4.57140636	          0.25527116	          0.57394396	          0.44174119	          0.51936927	          0.35645914	          0.19141155	          0.49000386	          0.35438302	          0.66442276	          0.33495844	          0.58830594	          0.42813166	          0.52928105	          0.40423278	          0.26734381	          0.36871698	          0.21665868	          0.64887873	
          0.84782488	         -0.92430580	          0.45104536	          0.45627961	          0.75816097	        -29.64115496	        -17.48255696	         17.63325102	        -27.59228965	         -7.38505661	         -2.96354834	         -4.77968203	         -4.77967611	          0.25208692	          0.58728968	          0.43378819	          0.52520802	          0.35861035	          0.19981795	          0.48890345	          0.34981965	          0.66264965	          0.33415291	          0.59023079	          0.44923899	          0.51108265	          0.39347231	          0.27014669	          0.39194687	          0.22577631	          0.63109840	
          0.85312378	         -0.95876765	          0.45448680	          0.45572543	          0.59336234	        -30.08015584	        -17.44607182	         17.29907420	        -27.71337515	         -7.52995378	         -2.77540532	         -4.98229725	         -4.98228997	          0.25187812	          0.59824515	          0.42081375	          0.52383535	          0.36719457	          0.20751725	          0.48719810	          0.34282795	          0.66717186	          0.33413244	          0.59174536	          0.46434871	          0.49295270	          0.39032666	          0.27379240	          0.41396457	          0.23310662	          0.60602000	
          0.85842269	         -0.99185370	          0.45790704	          0.45528662	          0.40589074	        -30.45523289	        -17.41683582	         16.94732656	        -27.79459757	         -7.72253344	         -2.59404619	         -5.17347284	         -5.17346422	          0.25402174	          0.60508112	          0.40597990	          0.51484057	          0.38335244	          0.21386156	          0.48376839	          0.33205599	          0.68064142	          0.33453231	          0.59392809	          0.47039812	          0.47257067	          0.39671452	          0.27753287	          0.43244800	          0.23633351	          0.57273079	
          0.86372160	         -1.02301462	          0.46129290	          0.45498469	          0.20394974	        -30.77214855	        -17.37191896	         16.57407110	        -27.82413828	         -7.98062515	         -2.42313083	         -5.34908536	         -5.34907525	          0.25998493	          0.61077919	          0.39643165	          0.51060911	          0.40145814	          0.21149953	          0.48288566	          0.32581375	          0.68483230	          0.33524732	          0.59158294	          0.47424678	          0.45211582	          0.41520498	          0.28192165	          0.44877560	          0.23816539	          0.53499524	
          0.86902050	         -1.05055068	          0.46463017	          0.45483489	         -0.00028622	        -31.04599256	        -17.31424109	         16.17787917	        -27.79522180	         -8.31951992	         -2.26794341	         -5.50453422	         -5.50452295	          0.26681466	          0.61693134	          0.39198398	          0.50275652	          0.42386449	          0.20857065	          0.48072584	          0.31694397	          0.69196528	          0.33713183	          0.58699818	          0.46765322	          0.43415491	          0.43995479	          0.28527041	          0.46348940	          0.23862381	          0.49543212	
